<?xml version="1.0" encoding="utf-8"?>
<!-- Generator: Adobe Illustrator 26.3.1, SVG Export Plug-In . SVG Version: 6.00 Build 0)  -->
<svg version="1.1" id="Layer_1" xmlns="http://www.w3.org/2000/svg" xmlns:xlink="http://www.w3.org/1999/xlink" x="0px" y="0px"
	 viewBox="0 0 1920 500" style="enable-background:new 0 0 1920 500;" xml:space="preserve">
<style type="text/css">
	.st0{clip-path:url(#SVGID_00000161607096624084024120000007488928785950182590_);fill:#D5D1C7;}
	.st1{opacity:0.5;clip-path:url(#SVGID_00000161607096624084024120000007488928785950182590_);fill:#ECECE8;}
	.st2{clip-path:url(#SVGID_00000161607096624084024120000007488928785950182590_);fill:none;stroke:#ECECE8;stroke-miterlimit:10;}
</style>
<g>
	<defs>
		<rect id="SVGID_1_" y="-0.3" width="1920.2" height="500.3"/>
	</defs>
	<clipPath id="SVGID_00000114755372261532762330000007554496636160694697_">
		<use xlink:href="#SVGID_1_"  style="overflow:visible;"/>
	</clipPath>
	
		<rect style="clip-path:url(#SVGID_00000114755372261532762330000007554496636160694697_);fill:#D5D1C7;" width="1920" height="500"/>
	
		<rect style="opacity:0.5;clip-path:url(#SVGID_00000114755372261532762330000007554496636160694697_);fill:#ECECE8;" width="1920" height="505.9"/>
	
		<path style="clip-path:url(#SVGID_00000114755372261532762330000007554496636160694697_);fill:none;stroke:#ECECE8;stroke-miterlimit:10;" d="
		M-15.6-220.7c276.6-65.5,417.1-14.5,494.6,49.4c70.3,57.9,80.8,119.8,152.8,153.6c136.8,64.2,301.7-66.4,420-126.6
		c172.4-87.8,449.1-135,908,37.4"/>
	
		<path style="clip-path:url(#SVGID_00000114755372261532762330000007554496636160694697_);fill:none;stroke:#ECECE8;stroke-miterlimit:10;" d="
		M-15.6-210.2c276.6-65.5,417.1-14.5,494.6,49.4c70.3,57.9,80.8,119.8,152.8,153.6c136.8,64.2,301.7-66.4,420-126.6
		c172.4-87.8,449.1-135,908,37.4"/>
	
		<path style="clip-path:url(#SVGID_00000114755372261532762330000007554496636160694697_);fill:none;stroke:#ECECE8;stroke-miterlimit:10;" d="
		M-15.6-199.7c276.6-65.5,417.1-14.5,494.6,49.4C549.2-92.4,559.7-30.5,631.7,3.3c136.8,64.2,301.7-66.4,420-126.6
		c172.4-87.8,449.1-135,908,37.4"/>
	
		<path style="clip-path:url(#SVGID_00000114755372261532762330000007554496636160694697_);fill:none;stroke:#ECECE8;stroke-miterlimit:10;" d="
		M-15.6-189.2c276.6-65.5,417.1-14.5,494.6,49.4C549.2-81.9,559.7-20,631.7,13.8c136.8,64.2,301.7-66.4,420-126.6
		c172.4-87.8,449.1-135,908,37.4"/>
	
		<path style="clip-path:url(#SVGID_00000114755372261532762330000007554496636160694697_);fill:none;stroke:#ECECE8;stroke-miterlimit:10;" d="
		M-15.6-178.7c276.6-65.5,417.1-14.5,494.6,49.4C549.2-71.4,559.7-9.5,631.7,24.3c136.8,64.2,301.7-66.4,420-126.6
		c172.4-87.8,449.1-135,908,37.4"/>
	
		<path style="clip-path:url(#SVGID_00000114755372261532762330000007554496636160694697_);fill:none;stroke:#ECECE8;stroke-miterlimit:10;" d="
		M-15.6-168.3c276.6-65.5,417.1-14.5,494.6,49.4C549.2-60.9,559.7,1,631.7,34.7c136.8,64.2,301.7-66.4,420-126.6
		c172.4-87.8,449.1-135,908,37.4"/>
	
		<path style="clip-path:url(#SVGID_00000114755372261532762330000007554496636160694697_);fill:none;stroke:#ECECE8;stroke-miterlimit:10;" d="
		M-15.6-157.8c276.6-65.5,417.1-14.5,494.6,49.4c70.3,57.9,80.8,119.8,152.8,153.6c136.8,64.2,301.7-66.4,420-126.6
		c172.4-87.8,449.1-135,908,37.4"/>
	
		<path style="clip-path:url(#SVGID_00000114755372261532762330000007554496636160694697_);fill:none;stroke:#ECECE8;stroke-miterlimit:10;" d="
		M-15.6-147.3c276.6-65.5,417.1-14.5,494.6,49.4C549.2-40,559.7,21.9,631.7,55.7c136.8,64.2,301.7-66.4,420-126.6
		c172.4-87.8,449.1-135,908,37.4"/>
	
		<path style="clip-path:url(#SVGID_00000114755372261532762330000007554496636160694697_);fill:none;stroke:#ECECE8;stroke-miterlimit:10;" d="
		M-15.6-136.8c276.6-65.5,417.1-14.5,494.6,49.4c70.3,57.9,80.8,119.8,152.8,153.6c136.8,64.2,301.7-66.4,420-126.6
		c172.4-87.8,449.1-135,908,37.4"/>
	
		<path style="clip-path:url(#SVGID_00000114755372261532762330000007554496636160694697_);fill:none;stroke:#ECECE8;stroke-miterlimit:10;" d="
		M-15.6-126.3c276.6-65.5,417.1-14.5,494.6,49.4C549.2-19,559.7,42.9,631.7,76.7c136.8,64.2,301.7-66.4,420-126.6
		c172.4-87.8,449.1-135,908,37.4"/>
	
		<path style="clip-path:url(#SVGID_00000114755372261532762330000007554496636160694697_);fill:none;stroke:#ECECE8;stroke-miterlimit:10;" d="
		M-15.6-115.9c276.6-65.5,417.1-14.5,494.6,49.4C549.2-8.5,559.7,53.4,631.7,87.1c136.8,64.2,301.7-66.4,420-126.6
		c172.4-87.8,449.1-135,908,37.4"/>
	
		<path style="clip-path:url(#SVGID_00000114755372261532762330000007554496636160694697_);fill:none;stroke:#ECECE8;stroke-miterlimit:10;" d="
		M-15.6-105.4C261-170.9,401.4-119.9,478.9-56C549.2,1.9,559.7,63.8,631.7,97.6c136.8,64.2,301.7-66.4,420-126.6
		c172.4-87.8,449.1-135,908,37.4"/>
	
		<path style="clip-path:url(#SVGID_00000114755372261532762330000007554496636160694697_);fill:none;stroke:#ECECE8;stroke-miterlimit:10;" d="
		M-15.6-94.9c276.6-65.5,417.1-14.5,494.6,49.4c70.3,57.9,80.8,119.8,152.8,153.6c136.8,64.2,301.7-66.4,420-126.6
		c172.4-87.8,449.1-135,908,37.4"/>
	
		<path style="clip-path:url(#SVGID_00000114755372261532762330000007554496636160694697_);fill:none;stroke:#ECECE8;stroke-miterlimit:10;" d="
		M-15.6-84.4C261-150,401.4-98.9,478.9-35c70.3,57.9,80.8,119.8,152.8,153.6c136.8,64.2,301.7-66.4,420-126.6
		c172.4-87.8,449.1-135,908,37.4"/>
	
		<path style="clip-path:url(#SVGID_00000114755372261532762330000007554496636160694697_);fill:none;stroke:#ECECE8;stroke-miterlimit:10;" d="
		M-15.6-74C261-139.5,401.4-88.4,478.9-24.5C549.2,33.4,559.7,95.3,631.7,129c136.8,64.2,301.7-66.4,420-126.6
		c172.4-87.8,449.1-135,908,37.4"/>
	
		<path style="clip-path:url(#SVGID_00000114755372261532762330000007554496636160694697_);fill:none;stroke:#ECECE8;stroke-miterlimit:10;" d="
		M-15.6-63.5C261-129,401.4-77.9,478.9-14.1c70.3,57.9,80.8,119.8,152.8,153.6c136.8,64.2,301.7-66.4,420-126.6
		c172.4-87.8,449.1-135,908,37.4"/>
	
		<path style="clip-path:url(#SVGID_00000114755372261532762330000007554496636160694697_);fill:none;stroke:#ECECE8;stroke-miterlimit:10;" d="
		M-15.6-53C261-118.5,401.4-67.5,478.9-3.6c70.3,57.9,80.8,119.8,152.8,153.6c136.8,64.2,301.7-66.4,420-126.6
		c172.4-87.8,449.1-135,908,37.4"/>
	
		<path style="clip-path:url(#SVGID_00000114755372261532762330000007554496636160694697_);fill:none;stroke:#ECECE8;stroke-miterlimit:10;" d="
		M-15.6-42.5C261-108,401.4-57,478.9,6.9c70.3,57.9,80.8,119.8,152.8,153.6c136.8,64.2,301.7-66.4,420-126.6
		c172.4-87.8,449.1-135,908,37.4"/>
	
		<path style="clip-path:url(#SVGID_00000114755372261532762330000007554496636160694697_);fill:none;stroke:#ECECE8;stroke-miterlimit:10;" d="
		M-15.6-32C261-97.6,401.4-46.5,478.9,17.4c70.3,57.9,80.8,119.8,152.8,153.6c136.8,64.2,301.7-66.4,420-126.6
		c172.4-87.8,449.1-135,908,37.4"/>
	
		<path style="clip-path:url(#SVGID_00000114755372261532762330000007554496636160694697_);fill:none;stroke:#ECECE8;stroke-miterlimit:10;" d="
		M-15.6-21.6C261-87.1,401.4-36,478.9,27.8c70.3,57.9,80.8,119.8,152.8,153.6c136.8,64.2,301.7-66.4,420-126.6
		c172.4-87.8,449.1-135,908,37.4"/>
	
		<path style="clip-path:url(#SVGID_00000114755372261532762330000007554496636160694697_);fill:none;stroke:#ECECE8;stroke-miterlimit:10;" d="
		M-15.6-11.1C261-76.6,401.4-25.6,478.9,38.3c70.3,57.9,80.8,119.8,152.8,153.6c136.8,64.2,301.7-66.4,420-126.6
		c172.4-87.8,449.1-135,908,37.4"/>
	
		<path style="clip-path:url(#SVGID_00000114755372261532762330000007554496636160694697_);fill:none;stroke:#ECECE8;stroke-miterlimit:10;" d="
		M-15.6-0.6C261-66.1,401.4-15.1,478.9,48.8c70.3,57.9,80.8,119.8,152.8,153.6c136.8,64.2,301.7-66.4,420-126.6
		c172.4-87.8,449.1-135,908,37.4"/>
	
		<path style="clip-path:url(#SVGID_00000114755372261532762330000007554496636160694697_);fill:none;stroke:#ECECE8;stroke-miterlimit:10;" d="
		M-15.6,9.9C261-55.7,401.4-4.6,478.9,59.3c70.3,57.9,80.8,119.8,152.8,153.6c136.8,64.2,301.7-66.4,420-126.6
		c172.4-87.8,449.1-135,908,37.4"/>
	
		<path style="clip-path:url(#SVGID_00000114755372261532762330000007554496636160694697_);fill:none;stroke:#ECECE8;stroke-miterlimit:10;" d="
		M-15.6,20.3C261-45.2,401.4,5.9,478.9,69.8c70.3,57.9,80.8,119.8,152.8,153.6c136.8,64.2,301.7-66.4,420-126.6
		c172.4-87.8,449.1-135,908,37.4"/>
	
		<path style="clip-path:url(#SVGID_00000114755372261532762330000007554496636160694697_);fill:none;stroke:#ECECE8;stroke-miterlimit:10;" d="
		M-15.6,30.8C261-34.7,401.4,16.4,478.9,80.2c70.3,57.9,80.8,119.8,152.8,153.6c136.8,64.2,301.7-66.4,420-126.6
		c172.4-87.8,449.1-135,908,37.4"/>
	
		<path style="clip-path:url(#SVGID_00000114755372261532762330000007554496636160694697_);fill:none;stroke:#ECECE8;stroke-miterlimit:10;" d="
		M-15.6,41.3C261-24.2,401.4,26.8,478.9,90.7c70.3,57.9,80.8,119.8,152.8,153.6c136.8,64.2,301.7-66.4,420-126.6
		c172.4-87.8,449.1-135,908,37.4"/>
	
		<path style="clip-path:url(#SVGID_00000114755372261532762330000007554496636160694697_);fill:none;stroke:#ECECE8;stroke-miterlimit:10;" d="
		M-15.6,51.8C261-13.7,401.4,37.3,478.9,101.2c70.3,57.9,80.8,119.8,152.8,153.6c136.8,64.2,301.7-66.4,420-126.6
		c172.4-87.8,449.1-135,908,37.4"/>
	
		<path style="clip-path:url(#SVGID_00000114755372261532762330000007554496636160694697_);fill:none;stroke:#ECECE8;stroke-miterlimit:10;" d="
		M-15.6,62.3C261-3.3,401.4,47.8,478.9,111.7c70.3,57.9,80.8,119.8,152.8,153.6c136.8,64.2,301.7-66.4,420-126.6
		c172.4-87.8,449.1-135,908,37.4"/>
	
		<path style="clip-path:url(#SVGID_00000114755372261532762330000007554496636160694697_);fill:none;stroke:#ECECE8;stroke-miterlimit:10;" d="
		M-15.6,72.7C261,7.2,401.4,58.3,478.9,122.1c70.3,57.9,80.8,119.8,152.8,153.6c136.8,64.2,301.7-66.4,420-126.6
		c172.4-87.8,449.1-135,908,37.4"/>
	
		<path style="clip-path:url(#SVGID_00000114755372261532762330000007554496636160694697_);fill:none;stroke:#ECECE8;stroke-miterlimit:10;" d="
		M-15.6,83.2C261,17.7,401.4,68.7,478.9,132.6c70.3,57.9,80.8,119.8,152.8,153.6c136.8,64.2,301.7-66.4,420-126.6
		c172.4-87.8,449.1-135,908,37.4"/>
	
		<path style="clip-path:url(#SVGID_00000114755372261532762330000007554496636160694697_);fill:none;stroke:#ECECE8;stroke-miterlimit:10;" d="
		M-15.6,93.7C261,28.2,401.4,79.2,478.9,143.1c70.3,57.9,80.8,119.8,152.8,153.6c136.8,64.2,301.7-66.4,420-126.6
		c172.4-87.8,449.1-135,908,37.4"/>
	
		<path style="clip-path:url(#SVGID_00000114755372261532762330000007554496636160694697_);fill:none;stroke:#ECECE8;stroke-miterlimit:10;" d="
		M-15.6,104.2C261,38.6,401.4,89.7,478.9,153.6c70.3,57.9,80.8,119.8,152.8,153.6c136.8,64.2,301.7-66.4,420-126.6
		c172.4-87.8,449.1-135,908,37.4"/>
	
		<path style="clip-path:url(#SVGID_00000114755372261532762330000007554496636160694697_);fill:none;stroke:#ECECE8;stroke-miterlimit:10;" d="
		M-15.6,114.7c276.6-65.5,417.1-14.5,494.6,49.4c70.3,57.9,80.8,119.8,152.8,153.6c136.8,64.2,301.7-66.4,420-126.6
		c172.4-87.8,449.1-135,908,37.4"/>
	
		<path style="clip-path:url(#SVGID_00000114755372261532762330000007554496636160694697_);fill:none;stroke:#ECECE8;stroke-miterlimit:10;" d="
		M-15.6,125.1c276.6-65.5,417.1-14.5,494.6,49.4c70.3,57.9,80.8,119.8,152.8,153.6c136.8,64.2,301.7-66.4,420-126.6
		c172.4-87.8,449.1-135,908,37.4"/>
	
		<path style="clip-path:url(#SVGID_00000114755372261532762330000007554496636160694697_);fill:none;stroke:#ECECE8;stroke-miterlimit:10;" d="
		M-15.6,135.6C261,70.1,401.4,121.1,478.9,185c70.3,57.9,80.8,119.8,152.8,153.6c136.8,64.2,301.7-66.4,420-126.6
		c172.4-87.8,449.1-135,908,37.4"/>
	
		<path style="clip-path:url(#SVGID_00000114755372261532762330000007554496636160694697_);fill:none;stroke:#ECECE8;stroke-miterlimit:10;" d="
		M-15.6,146.1c276.6-65.5,417.1-14.5,494.6,49.4c70.3,57.9,80.8,119.8,152.8,153.6c136.8,64.2,301.7-66.4,420-126.6
		c172.4-87.8,449.1-135,908,37.4"/>
	
		<path style="clip-path:url(#SVGID_00000114755372261532762330000007554496636160694697_);fill:none;stroke:#ECECE8;stroke-miterlimit:10;" d="
		M-15.6,156.6C261,91,401.4,142.1,478.9,206c70.3,57.9,80.8,119.8,152.8,153.6c136.8,64.2,301.7-66.4,420-126.6
		c172.4-87.8,449.1-135,908,37.4"/>
	
		<path style="clip-path:url(#SVGID_00000114755372261532762330000007554496636160694697_);fill:none;stroke:#ECECE8;stroke-miterlimit:10;" d="
		M-15.6,167c276.6-65.5,417.1-14.5,494.6,49.4c70.3,57.9,80.8,119.8,152.8,153.6c136.8,64.2,301.7-66.4,420-126.6
		c172.4-87.8,449.1-135,908,37.4"/>
	
		<path style="clip-path:url(#SVGID_00000114755372261532762330000007554496636160694697_);fill:none;stroke:#ECECE8;stroke-miterlimit:10;" d="
		M-15.6,177.5C261,112,401.4,163,478.9,226.9c70.3,57.9,80.8,119.8,152.8,153.6c136.8,64.2,301.7-66.4,420-126.6
		c172.4-87.8,449.1-135,908,37.4"/>
	
		<path style="clip-path:url(#SVGID_00000114755372261532762330000007554496636160694697_);fill:none;stroke:#ECECE8;stroke-miterlimit:10;" d="
		M-15.6,188c276.6-65.5,417.1-14.5,494.6,49.4c70.3,57.9,80.8,119.8,152.8,153.6c136.8,64.2,301.7-66.4,420-126.6
		c172.4-87.8,449.1-135,908,37.4"/>
	
		<path style="clip-path:url(#SVGID_00000114755372261532762330000007554496636160694697_);fill:none;stroke:#ECECE8;stroke-miterlimit:10;" d="
		M-15.6,198.5C261,133,401.4,184,478.9,247.9c70.3,57.9,80.8,119.8,152.8,153.6c136.8,64.2,301.7-66.4,420-126.6
		c172.4-87.8,449.1-135,908,37.4"/>
	
		<path style="clip-path:url(#SVGID_00000114755372261532762330000007554496636160694697_);fill:none;stroke:#ECECE8;stroke-miterlimit:10;" d="
		M-15.6,209c276.6-65.5,417.1-14.5,494.6,49.4c70.3,57.9,80.8,119.8,152.8,153.6c136.8,64.2,301.7-66.4,420-126.6
		c172.4-87.8,449.1-135,908,37.4"/>
	
		<path style="clip-path:url(#SVGID_00000114755372261532762330000007554496636160694697_);fill:none;stroke:#ECECE8;stroke-miterlimit:10;" d="
		M-15.6,219.4C261,153.9,401.4,205,478.9,268.8c70.3,57.9,80.8,119.8,152.8,153.6c136.8,64.2,301.7-66.4,420-126.6
		c172.4-87.8,449.1-135,908,37.4"/>
	
		<path style="clip-path:url(#SVGID_00000114755372261532762330000007554496636160694697_);fill:none;stroke:#ECECE8;stroke-miterlimit:10;" d="
		M-15.6,229.9c276.6-65.5,417.1-14.5,494.6,49.4c70.3,57.9,80.8,119.8,152.8,153.6c136.8,64.2,301.7-66.4,420-126.6
		c172.4-87.8,449.1-135,908,37.4"/>
	
		<path style="clip-path:url(#SVGID_00000114755372261532762330000007554496636160694697_);fill:none;stroke:#ECECE8;stroke-miterlimit:10;" d="
		M-15.6,240.4c276.6-65.5,417.1-14.5,494.6,49.4c70.3,57.9,80.8,119.8,152.8,153.6c136.8,64.2,301.7-66.4,420-126.6
		c172.4-87.8,449.1-135,908,37.4"/>
	
		<path style="clip-path:url(#SVGID_00000114755372261532762330000007554496636160694697_);fill:none;stroke:#ECECE8;stroke-miterlimit:10;" d="
		M-15.6,250.9c276.6-65.5,417.1-14.5,494.6,49.4c70.3,57.9,80.8,119.8,152.8,153.6c136.8,64.2,301.7-66.4,420-126.6
		c172.4-87.8,449.1-135,908,37.4"/>
	
		<path style="clip-path:url(#SVGID_00000114755372261532762330000007554496636160694697_);fill:none;stroke:#ECECE8;stroke-miterlimit:10;" d="
		M-15.6,261.3c276.6-65.5,417.1-14.5,494.6,49.4c70.3,57.9,80.8,119.8,152.8,153.6c136.8,64.2,301.7-66.4,420-126.6
		c172.4-87.8,449.1-135,908,37.4"/>
	
		<path style="clip-path:url(#SVGID_00000114755372261532762330000007554496636160694697_);fill:none;stroke:#ECECE8;stroke-miterlimit:10;" d="
		M-15.6,271.8c276.6-65.5,417.1-14.5,494.6,49.4c70.3,57.9,80.8,119.8,152.8,153.6c136.8,64.2,301.7-66.4,420-126.6
		c172.4-87.8,449.1-135,908,37.4"/>
	
		<path style="clip-path:url(#SVGID_00000114755372261532762330000007554496636160694697_);fill:none;stroke:#ECECE8;stroke-miterlimit:10;" d="
		M-15.6,282.3c276.6-65.5,417.1-14.5,494.6,49.4c70.3,57.9,80.8,119.8,152.8,153.6c136.8,64.2,301.7-66.4,420-126.6
		c172.4-87.8,449.1-135,908,37.4"/>
	
		<path style="clip-path:url(#SVGID_00000114755372261532762330000007554496636160694697_);fill:none;stroke:#ECECE8;stroke-miterlimit:10;" d="
		M-15.6,292.8c276.6-65.5,417.1-14.5,494.6,49.4c70.3,57.9,80.8,119.8,152.8,153.6c136.8,64.2,301.7-66.4,420-126.6
		c172.4-87.8,449.1-135,908,37.4"/>
	
		<path style="clip-path:url(#SVGID_00000114755372261532762330000007554496636160694697_);fill:none;stroke:#ECECE8;stroke-miterlimit:10;" d="
		M-15.6,303.3c276.6-65.5,417.1-14.5,494.6,49.4c70.3,57.9,80.8,119.8,152.8,153.6c136.8,64.2,301.7-66.4,420-126.6
		c172.4-87.8,449.1-135,908,37.4"/>
	
		<path style="clip-path:url(#SVGID_00000114755372261532762330000007554496636160694697_);fill:none;stroke:#ECECE8;stroke-miterlimit:10;" d="
		M-15.6,313.7c276.6-65.5,417.1-14.5,494.6,49.4c70.3,57.9,80.8,119.8,152.8,153.6c136.8,64.2,301.7-66.4,420-126.6
		c172.4-87.8,449.1-135,908,37.4"/>
	
		<path style="clip-path:url(#SVGID_00000114755372261532762330000007554496636160694697_);fill:none;stroke:#ECECE8;stroke-miterlimit:10;" d="
		M-15.6,324.2c276.6-65.5,417.1-14.5,494.6,49.4c70.3,57.9,80.8,119.8,152.8,153.6c136.8,64.2,301.7-66.4,420-126.6
		c172.4-87.8,449.1-135,908,37.4"/>
	
		<path style="clip-path:url(#SVGID_00000114755372261532762330000007554496636160694697_);fill:none;stroke:#ECECE8;stroke-miterlimit:10;" d="
		M-15.6,334.7c276.6-65.5,417.1-14.5,494.6,49.4c70.3,57.9,80.8,119.8,152.8,153.6c136.8,64.2,301.7-66.4,420-126.6
		c172.4-87.8,449.1-135,908,37.4"/>
	
		<path style="clip-path:url(#SVGID_00000114755372261532762330000007554496636160694697_);fill:none;stroke:#ECECE8;stroke-miterlimit:10;" d="
		M-15.6,345.2c276.6-65.5,417.1-14.5,494.6,49.4c70.3,57.9,80.8,119.8,152.8,153.6c136.8,64.2,301.7-66.4,420-126.6
		c172.4-87.8,449.1-135,908,37.4"/>
	
		<path style="clip-path:url(#SVGID_00000114755372261532762330000007554496636160694697_);fill:none;stroke:#ECECE8;stroke-miterlimit:10;" d="
		M-15.6,355.7c276.6-65.5,417.1-14.5,494.6,49.4c70.3,57.9,80.8,119.8,152.8,153.6c136.8,64.2,301.7-66.4,420-126.6
		c172.4-87.8,449.1-135,908,37.4"/>
	
		<path style="clip-path:url(#SVGID_00000114755372261532762330000007554496636160694697_);fill:none;stroke:#ECECE8;stroke-miterlimit:10;" d="
		M-15.6,366.1c276.6-65.5,417.1-14.5,494.6,49.4c70.3,57.9,80.8,119.8,152.8,153.6c136.8,64.2,301.7-66.4,420-126.6
		c172.4-87.8,449.1-135,908,37.4"/>
	
		<path style="clip-path:url(#SVGID_00000114755372261532762330000007554496636160694697_);fill:none;stroke:#ECECE8;stroke-miterlimit:10;" d="
		M-15.6,376.6C261,311.1,401.4,362.1,478.9,426c70.3,57.9,80.8,119.8,152.8,153.6c136.8,64.2,301.7-66.4,420-126.6
		c172.4-87.8,449.1-135,908,37.4"/>
	
		<path style="clip-path:url(#SVGID_00000114755372261532762330000007554496636160694697_);fill:none;stroke:#ECECE8;stroke-miterlimit:10;" d="
		M-15.6,387.1c276.6-65.5,417.1-14.5,494.6,49.4c70.3,57.9,80.8,119.8,152.8,153.6c136.8,64.2,301.7-66.4,420-126.6
		c172.4-87.8,449.1-135,908,37.4"/>
	
		<path style="clip-path:url(#SVGID_00000114755372261532762330000007554496636160694697_);fill:none;stroke:#ECECE8;stroke-miterlimit:10;" d="
		M-15.6,397.6C261,332,401.4,383.1,478.9,447c70.3,57.9,80.8,119.8,152.8,153.6c136.8,64.2,301.7-66.4,420-126.6
		c172.4-87.8,449.1-135,908,37.4"/>
	
		<path style="clip-path:url(#SVGID_00000114755372261532762330000007554496636160694697_);fill:none;stroke:#ECECE8;stroke-miterlimit:10;" d="
		M-15.6,408c276.6-65.5,417.1-14.5,494.6,49.4c70.3,57.9,80.8,119.8,152.8,153.6c136.8,64.2,301.7-66.4,420-126.6
		c172.4-87.8,449.1-135,908,37.4"/>
	
		<path style="clip-path:url(#SVGID_00000114755372261532762330000007554496636160694697_);fill:none;stroke:#ECECE8;stroke-miterlimit:10;" d="
		M-15.6,418.5C261,353,401.4,404,478.9,467.9c70.3,57.9,80.8,119.8,152.8,153.6c136.8,64.2,301.7-66.4,420-126.6
		c172.4-87.8,449.1-135,908,37.4"/>
	
		<path style="clip-path:url(#SVGID_00000114755372261532762330000007554496636160694697_);fill:none;stroke:#ECECE8;stroke-miterlimit:10;" d="
		M-15.6,429c276.6-65.5,417.1-14.5,494.6,49.4c70.3,57.9,80.8,119.8,152.8,153.6c136.8,64.2,301.7-66.4,420-126.6
		c172.4-87.8,449.1-135,908,37.4"/>
	
		<path style="clip-path:url(#SVGID_00000114755372261532762330000007554496636160694697_);fill:none;stroke:#ECECE8;stroke-miterlimit:10;" d="
		M-15.6,439.5C261,374,401.4,425,478.9,488.9c70.3,57.9,80.8,119.8,152.8,153.6c136.8,64.2,301.7-66.4,420-126.6
		c172.4-87.8,449.1-135,908,37.4"/>
	
		<path style="clip-path:url(#SVGID_00000114755372261532762330000007554496636160694697_);fill:none;stroke:#ECECE8;stroke-miterlimit:10;" d="
		M-15.6,450c276.6-65.5,417.1-14.5,494.6,49.4c70.3,57.9,80.8,119.8,152.8,153.6c136.8,64.2,301.7-66.4,420-126.6
		c172.4-87.8,449.1-135,908,37.4"/>
	
		<path style="clip-path:url(#SVGID_00000114755372261532762330000007554496636160694697_);fill:none;stroke:#ECECE8;stroke-miterlimit:10;" d="
		M-15.6,460.4C261,394.9,401.4,446,478.9,509.8c70.3,57.9,80.8,119.8,152.8,153.6c136.8,64.2,301.7-66.4,420-126.6
		c172.4-87.8,449.1-135,908,37.4"/>
	
		<path style="clip-path:url(#SVGID_00000114755372261532762330000007554496636160694697_);fill:none;stroke:#ECECE8;stroke-miterlimit:10;" d="
		M-15.6,470.9c276.6-65.5,417.1-14.5,494.6,49.4c70.3,57.9,80.8,119.8,152.8,153.6c136.8,64.2,301.7-66.4,420-126.6
		c172.4-87.8,449.1-135,908,37.4"/>
	
		<path style="clip-path:url(#SVGID_00000114755372261532762330000007554496636160694697_);fill:none;stroke:#ECECE8;stroke-miterlimit:10;" d="
		M-15.6,481.4c276.6-65.5,417.1-14.5,494.6,49.4c70.3,57.9,80.8,119.8,152.8,153.6c136.8,64.2,301.7-66.4,420-126.6
		c172.4-87.8,449.1-135,908,37.4"/>
	
		<path style="clip-path:url(#SVGID_00000114755372261532762330000007554496636160694697_);fill:none;stroke:#ECECE8;stroke-miterlimit:10;" d="
		M-15.6,491.9c276.6-65.5,417.1-14.5,494.6,49.4c70.3,57.9,80.8,119.8,152.8,153.6c136.8,64.2,301.7-66.4,420-126.6
		c172.4-87.8,449.1-135,908,37.4"/>
	
		<path style="clip-path:url(#SVGID_00000114755372261532762330000007554496636160694697_);fill:none;stroke:#ECECE8;stroke-miterlimit:10;" d="
		M-15.6,502.3c276.6-65.5,417.1-14.5,494.6,49.4c70.3,57.9,80.8,119.8,152.8,153.6c136.8,64.2,301.7-66.4,420-126.6
		c172.4-87.8,449.1-135,908,37.4"/>
	
		<path style="clip-path:url(#SVGID_00000114755372261532762330000007554496636160694697_);fill:none;stroke:#ECECE8;stroke-miterlimit:10;" d="
		M-15.6,512.8c276.6-65.5,417.1-14.5,494.6,49.4c70.3,57.9,80.8,119.8,152.8,153.6c136.8,64.2,301.7-66.4,420-126.6
		c172.4-87.8,449.1-135,908,37.4"/>
	
		<path style="clip-path:url(#SVGID_00000114755372261532762330000007554496636160694697_);fill:none;stroke:#ECECE8;stroke-miterlimit:10;" d="
		M-15.6,523.3c276.6-65.5,417.1-14.5,494.6,49.4c70.3,57.9,80.8,119.8,152.8,153.6c136.8,64.2,301.7-66.4,420-126.6
		c172.4-87.8,449.1-135,908,37.4"/>
</g>
</svg>
